<svg xmlns="http://www.w3.org/2000/svg" width="371" height="186" fill="none"><rect width="371" height="186" fill="#EBE8FF" rx="8"/><path fill="#0F2B46" fill-rule="evenodd" stroke="#EBE8FF" stroke-width=".5" d="M244.134 60.696c-.025-.486.283-.977.926-1.348l43.507-25.119c1.236-.714 3.24-.714 4.476 0l43.508 25.119c.593.343.901.787.925 1.236v8c-.024-.449-.332-.893-.925-1.236l-43.508-25.119c-1.236-.714-3.24-.714-4.476 0L245.06 67.35c-.643.37-.951.861-.926 1.347z" clip-rule="evenodd"/><path fill="#0F2B46" fill-rule="evenodd" stroke="#EBE8FF" stroke-width=".5" d="M337.477 60.584c.025.486-.283.977-.926 1.348l-43.507 25.12c-1.236.713-3.24.713-4.476 0l-43.508-25.12c-.593-.342-.902-.787-.925-1.236v8c.023.449.332.894.925 1.236l43.508 25.12c1.236.713 3.24.713 4.476 0l43.507-25.12c.643-.37.951-.862.926-1.348z" clip-rule="evenodd"/><rect width="55.407" height="55.407" fill="#0F2B46" stroke="#EBE8FF" stroke-width=".5" rx="2.584" transform="matrix(.86603 -.5 .86603 .5 242.822 60.64)"/><path fill="#DBD6FF" fill-rule="evenodd" stroke="#0F2B46" stroke-linejoin="round" stroke-width=".5" d="M266.236 43.12c.188-.121.454-.111.749.059l8.769 5.063c.567.327 1.028 1.124 1.028 1.78v8.883l10.618-6.13V43.89c0-.655-.46-1.452-1.028-1.78l-8.769-5.062c-.295-.17-.561-.18-.749-.059z" clip-rule="evenodd"/><path fill="#DBD6FF" stroke="#0F2B46" stroke-linejoin="round" stroke-width=".5" d="M265.957 43.772c0-.655.46-.92 1.028-.593l8.769 5.063c.567.327 1.027 1.124 1.027 1.78v8.883l-10.824-6.25z"/><path fill="#DBD6FF" fill-rule="evenodd" stroke="#0F2B46" stroke-linejoin="round" stroke-width=".5" d="M280.141 39.324c.187-.122.453-.112.748.059l8.769 5.062c.568.328 1.028 1.125 1.028 1.78v20.758l10.618-6.13V40.094c0-.655-.46-1.452-1.028-1.78l-8.769-5.063c-.295-.17-.561-.18-.748-.058z" clip-rule="evenodd"/><path fill="#DBD6FF" stroke="#0F2B46" stroke-linejoin="round" stroke-width=".5" d="M279.861 39.976c0-.656.46-.921 1.028-.594l8.769 5.063c.568.328 1.028 1.125 1.028 1.78v20.758l-10.825-6.25z"/><path fill="#DBD6FF" fill-rule="evenodd" stroke="#0F2B46" stroke-linejoin="round" stroke-width=".5" d="M294.621 30.31c.188-.121.454-.111.749.059l8.769 5.063c.567.327 1.027 1.124 1.027 1.78V75.78l10.618-6.13V31.08c0-.655-.46-1.452-1.027-1.78l-8.769-5.062c-.295-.17-.561-.18-.749-.059z" clip-rule="evenodd"/><path fill="#DBD6FF" stroke="#0F2B46" stroke-linejoin="round" stroke-width=".5" d="M294.342 30.962c0-.655.46-.921 1.027-.593l8.769 5.063c.568.327 1.028 1.124 1.028 1.78V75.78l-10.824-6.25z"/><path fill="#DBD6FF" fill-rule="evenodd" d="M241.383 172.47c-.681.443-1.648.406-2.72-.213l-113.48-65.518c-2.062-1.19-3.734-4.085-3.734-6.466V18.296c0-1.143.385-1.96 1.014-2.368l3.464-2c-.629.408-1.014 1.225-1.014 2.368v81.977c0 2.381 1.672 5.276 3.734 6.466l113.48 65.518c1.073.619 2.039.656 2.721.213z" clip-rule="evenodd"/><path fill="#EBE8FF" fill-rule="evenodd" stroke="#0F2B46" stroke-width=".5" d="M122.463 15.928c.681-.443 1.647-.407 2.72.212l113.48 65.518c2.062 1.19 3.734 4.086 3.734 6.467v81.977c0 1.143-.385 1.96-1.014 2.368l3.465-2c.628-.408 1.014-1.225 1.014-2.368V86.125c0-2.38-1.673-5.276-3.735-6.467L128.647 14.14c-1.072-.619-2.039-.655-2.72-.212z" clip-rule="evenodd"/><rect width="139.659" height="90.599" fill="#EBE8FF" stroke="#0F2B46" stroke-width=".5" rx="4.311" transform="matrix(.86603 .5 0 1 121.449 13.985)"/><rect width="63.349" height="57.271" fill="#EBE8FF" stroke="#0F2B46" stroke-width=".5" rx="2.149" transform="matrix(.86603 .5 0 1 125.502 43.971)"/><rect width="63.1" height="57.271" fill="#DBD6FF" stroke="#0F2B46" stroke-width=".5" rx="2.149" transform="matrix(.86603 .5 0 1 180.363 75.987)"/><path fill="#EBE8FF" fill-rule="evenodd" stroke="#0F2B46" stroke-width=".5" d="M125.736 27.345c.355-.23.859-.212 1.418.11l15.635 9.028c1.075.62 1.946 2.13 1.946 3.37v9.636c0 .595-.2 1.021-.528 1.234l3.252-1.878c.328-.213.528-.638.528-1.234v-9.635c0-1.241-.871-2.75-1.946-3.37l-15.635-9.028c-.559-.322-1.063-.341-1.418-.11z" clip-rule="evenodd"/><rect width="22.548" height="14.129" fill="#EBE8FF" stroke="#0F2B46" stroke-width=".5" rx="1.994" transform="matrix(.86603 .5 0 1 125.209 26.332)"/><path fill="#EBE8FF" fill-rule="evenodd" stroke="#0F2B46" stroke-width=".5" d="M34.459 125.346c-.026-.486.282-.977.925-1.349l43.507-25.118c1.236-.714 3.24-.714 4.477 0l43.507 25.118c.593.343.902.788.925 1.236v8c-.023-.448-.332-.893-.925-1.236l-43.507-25.119c-1.236-.713-3.24-.713-4.477.001l-43.507 25.118c-.643.372-.951.863-.925 1.349z" clip-rule="evenodd"/><path fill="#EBE8FF" fill-rule="evenodd" stroke="#0F2B46" stroke-width=".5" d="M127.801 125.233c.026.487-.283.978-.926 1.349l-43.507 25.119c-1.236.713-3.24.713-4.476 0l-43.507-25.119c-.594-.343-.902-.788-.926-1.236v8c.024.448.332.893.925 1.236l43.508 25.119c1.236.713 3.24.713 4.476 0l43.507-25.119c.643-.371.952-.862.926-1.349z" clip-rule="evenodd"/><rect width="55.407" height="55.407" fill="#EBE8FF" stroke="#0F2B46" stroke-width=".5" rx="2.584" transform="matrix(.86603 -.5 .86603 .5 33.147 125.29)"/><path fill="#EBE8FF" d="M57.629 88.197h47v47h-47z"/><ellipse cx="81.129" cy="111.697" fill="#EBE8FF" stroke="#0F2B46" stroke-linejoin="round" stroke-width=".5" rx="23.5" ry="23.47"/><path fill="#0F2B46" d="m64.512 98.132-.158-.193zm16.617-5.619v-.25zm16.617 5.62-.158.193zm-.002 23.184-.126-.216zm-33.232 0 .125-.216zm16.616-28.804.126.216zm0 0 .126-.217zM64.67 98.326c4.538-3.705 10.494-5.562 16.459-5.562v-.5c-6.064 0-12.136 1.887-16.775 5.675zm16.459-5.562c5.965 0 11.92 1.857 16.459 5.562l.316-.387c-4.64-3.788-10.712-5.676-16.775-5.675zm-23.25 18.933c0-4.828 2.255-9.668 6.791-13.371l-.316-.387c-4.642 3.789-6.975 8.767-6.975 13.758zm39.709-13.371c4.536 3.703 6.791 8.543 6.791 13.371h.5c0-4.991-2.333-9.969-6.975-13.758zm.03 22.775c-4.54 2.629-10.509 3.951-16.49 3.951v.5c6.046 0 12.106-1.335 16.741-4.018zm-16.49 3.951c-5.981 0-11.95-1.322-16.49-3.951l-.251.433c4.635 2.683 10.695 4.018 16.74 4.018zm-16.49-3.951c-4.543-2.63-6.758-6.043-6.758-9.404h-.5c0 3.602 2.373 7.154 7.007 9.837zm39.738-9.404c0 3.361-2.215 6.774-6.758 9.404l.251.433c4.634-2.683 7.007-6.235 7.007-9.837zm-39.565 9.591c0-5.243 1.837-11.07 4.82-16.249 2.981-5.18 7.095-9.689 11.623-12.31l-.25-.433c-4.623 2.676-8.793 7.258-11.807 12.493s-4.886 11.148-4.886 16.499zm4.76 10.558c-2.912-1.668-4.76-5.294-4.76-10.558h-.5c0 5.369 1.889 9.204 5.011 10.992zm11.683-39.117c4.511-2.612 8.539-2.837 11.43-1.183l.248-.434c-3.1-1.774-7.326-1.48-11.929 1.184zm-.251 0c4.528 2.621 8.641 7.13 11.623 12.31 2.982 5.179 4.82 11.006 4.82 16.249h.5c0-5.351-1.872-11.264-4.886-16.499s-7.185-9.817-11.806-12.493zm-11.43-1.184c2.892-1.653 6.919-1.428 11.43 1.184l.25-.433c-4.601-2.664-8.828-2.958-11.927-1.185zm27.872 29.743c0 5.266-1.848 8.893-4.762 10.559l.248.434c3.125-1.787 5.014-5.622 5.014-10.993zM80.88 88.197v47h.5v-47z"/><path fill="#0F2B46" fill-rule="evenodd" stroke="#EBE8FF" stroke-width=".5" d="M165.097 119.748c-.287.186-.695.171-1.147-.09L95.882 80.359c-.869-.502-1.573-1.722-1.573-2.726V62.186c0-.481.162-.826.427-.998l3.464-2c-.265.172-.427.517-.427.998v15.447c0 1.004.704 2.224 1.574 2.726l68.067 39.299c.452.261.86.276 1.147.09z" clip-rule="evenodd"/><path fill="#0F2B46" fill-rule="evenodd" stroke="#EBE8FF" stroke-width=".5" d="M94.736 61.188c.287-.187.695-.172 1.147.09l68.068 39.298c.869.502 1.573 1.723 1.573 2.726v15.447c0 .482-.162.826-.427.998l3.464-2c.265-.172.427-.516.427-.998v-15.447c0-1.003-.704-2.224-1.573-2.726L99.347 59.277c-.452-.26-.86-.276-1.147-.09z" clip-rule="evenodd"/><rect width="82.232" height="19.081" fill="#0F2B46" stroke="#EBE8FF" stroke-width=".5" rx="1.817" transform="matrix(.86603 .5 0 1 94.309 60.369)"/><rect width="39.503" height="4.543" fill="#EBE8FF" stroke="#0F2B46" stroke-width=".5" rx="2.272" transform="matrix(.86603 .5 0 1 123.838 85.686)"/><path fill="#DBD6FF" fill-rule="evenodd" stroke="#0F2B46" stroke-width=".5" d="M138.028 102.765c-.886.577-2.145.529-3.541-.277-2.685-1.55-4.862-5.32-4.862-8.42 0-1.489.502-2.552 1.32-3.084l3.057-1.765c-.818.532-1.32 1.595-1.32 3.083 0 3.1 2.177 6.87 4.862 8.421 1.396.806 2.655.853 3.542.277z" clip-rule="evenodd"/><path fill="#DBD6FF" fill-rule="evenodd" stroke="#0F2B46" stroke-width=".5" d="M130.945 90.984c.887-.576 2.146-.53 3.542.277 2.685 1.55 4.862 5.32 4.862 8.42 0 1.489-.502 2.552-1.32 3.084l3.057-1.765c.819-.532 1.32-1.596 1.32-3.084 0-3.1-2.177-6.87-4.862-8.42-1.396-.807-2.655-.854-3.541-.277z" clip-rule="evenodd"/><circle cx="5.614" cy="5.614" r="5.614" fill="#DBD6FF" stroke="#0F2B46" stroke-width=".5" transform="matrix(.86603 .5 0 1 129.625 88.454)"/><path fill="#EBE8FF" d="m100.978 70.278-2.453-1.416v-.792l5.674 3.276v.792l-2.463-1.422v7.776l-.758-.438zm2.96 6.414q0-1.032.302-1.59.312-.564.873-.636.572-.066 1.34.378.78.45 1.331 1.164.56.708.862 1.614a6 6 0 0 1 .301 1.926q0 1.02-.301 1.59-.301.558-.873.636-.561.072-1.34-.378a4.7 4.7 0 0 1-1.351-1.164 5.2 5.2 0 0 1-.853-1.62 6.3 6.3 0 0 1-.291-1.92m.759.414q0 .78.187 1.476.187.684.572 1.23t.977.888q.602.348.987.246t.571-.57q.187-.48.187-1.272 0-.78-.187-1.464a3.7 3.7 0 0 0-.571-1.23 3.1 3.1 0 0 0-.987-.882q-.582-.336-.977-.252-.385.09-.572.57-.187.468-.187 1.26m5.321-.012.718.414v1.644l-.24-.414q.282-.39.614-.534.343-.15.727-.084.384.054.8.294.883.51 1.32 1.338.447.822.447 1.902v4.152l-.727-.42V81.39q0-.876-.302-1.434a2.23 2.23 0 0 0-.894-.912 1.8 1.8 0 0 0-.665-.24.85.85 0 0 0-.582.096.9.9 0 0 0-.28.186.9.9 0 0 0-.167.312q-.051.198-.051.534v3.756l-.718-.414zm5.422 6.262q0-.792.176-1.314.177-.522.499-.756.322-.246.769-.204.458.048.998.36.78.45 1.278 1.122.5.66.738 1.482.249.828.249 1.752v.444l-4.354-2.514v-.636l3.991 2.304-.364.114a6.2 6.2 0 0 0-.135-1.446 3.3 3.3 0 0 0-.489-1.146 2.75 2.75 0 0 0-.924-.834q-.478-.276-.811-.264a.69.69 0 0 0-.52.264q-.196.246-.291.672a5.3 5.3 0 0 0-.083.984q0 1.224.437 2.16.436.936 1.278 1.422.665.384 1.008.27.353-.108.468-.594l.696.402q-.135.786-.676.978-.54.18-1.496-.372a4.6 4.6 0 0 1-1.808-1.896q-.634-1.218-.634-2.754"/><path fill="#0F2B46" fill-rule="evenodd" stroke="#EBE8FF" stroke-width=".5" d="M76.367 24.686c.287-.186.695-.171 1.147.09l68.067 39.299c.87.502 1.574 1.722 1.574 2.726v15.447c0 .482-.162.826-.427.998l3.464-2c.265-.172.427-.516.427-.998V64.8c0-1.004-.704-2.224-1.573-2.726L80.978 22.776c-.452-.261-.86-.276-1.147-.09z" clip-rule="evenodd"/><rect width="82.232" height="19.081" fill="#0F2B46" stroke="#EBE8FF" stroke-width=".5" rx="1.817" transform="matrix(.86603 .5 0 1 75.94 23.867)"/><rect width="39.503" height="4.543" fill="#EBE8FF" stroke="#0F2B46" stroke-width=".5" rx="2.272" transform="matrix(.86603 .5 0 1 105.469 49.185)"/><path fill="#DBD6FF" fill-rule="evenodd" stroke="#0F2B46" stroke-width=".5" d="M127.271 70.95c-.887.576-2.146.529-3.542-.277-2.685-1.55-4.862-5.32-4.862-8.42 0-1.489.502-2.552 1.32-3.084l3.058-1.766c-.819.532-1.32 1.596-1.32 3.084 0 3.1 2.176 6.87 4.861 8.42 1.397.807 2.655.854 3.542.278z" clip-rule="evenodd"/><path fill="#DBD6FF" fill-rule="evenodd" stroke="#0F2B46" stroke-width=".5" d="M120.188 59.169c.886-.577 2.145-.53 3.541.276 2.685 1.55 4.862 5.32 4.862 8.421 0 1.488-.502 2.552-1.32 3.084l3.057-1.766c.819-.532 1.32-1.595 1.32-3.083 0-3.1-2.176-6.87-4.861-8.42-1.397-.807-2.655-.854-3.542-.278z" clip-rule="evenodd"/><circle cx="5.614" cy="5.614" r="5.614" fill="#DBD6FF" stroke="#0F2B46" stroke-width=".5" transform="matrix(.86603 .5 0 1 118.867 56.639)"/><path fill="#EBE8FF" d="M85.092 40.743q0-.42-.125-.816a2.6 2.6 0 0 0-.446-.81q-.312-.408-.894-.852l-.904-.714a10 10 0 0 1-1.185-1.104 4.2 4.2 0 0 1-.727-1.164 3.7 3.7 0 0 1-.25-1.368q0-.768.333-1.092.343-.318.925-.246.592.078 1.35.516.656.378 1.113.81a4.75 4.75 0 0 1 1.247 1.872q.176.498.27 1.008l-.717-.246a5 5 0 0 0-.343-1.086 3 3 0 0 0-.593-.858 4.2 4.2 0 0 0-.966-.738q-.665-.384-1.07-.426-.396-.036-.582.204-.187.24-.187.708 0 .684.322 1.23.322.534 1.133 1.182l.966.762q1.112.87 1.621 1.74.52.876.52 1.968 0 .708-.291 1.092t-.873.372q-.582-.024-1.445-.522-1.247-.72-2.016-1.776a4.76 4.76 0 0 1-.883-2.43l.758.438q.136.978.655 1.71.52.732 1.486 1.29.656.378 1.05.39.395.012.572-.27t.176-.774m2.183 1.608v-5.988l.718.414v6.192q0 .528.197.942.199.414.592.642.22.126.395.192.177.054.312.072l.135.726a2.2 2.2 0 0 1-.426-.114 2.7 2.7 0 0 1-.53-.246 2.7 2.7 0 0 1-.852-.744 2.7 2.7 0 0 1-.426-.954 5.3 5.3 0 0 1-.115-1.134m-.82-4.758 3.024 1.746v.672l-3.025-1.746zm5.795 9.91-2.432-7.968.831.48 1.923 6.63-.27-.144 1.756-4.518.79.456-2.339 5.562a5 5 0 0 1-.29.576 1.1 1.1 0 0 1-.323.354.56.56 0 0 1-.384.102q-.219-.006-.52-.18a4 4 0 0 1-.405-.27 5 5 0 0 1-.406-.354l.146-.588q.145.132.291.24.145.12.28.198.333.192.52.072.198-.114.395-.624l.457-1.14zm3.252-7.074.728.42v8.568l-.728-.42zM97.321 47q0-.792.176-1.314.177-.522.5-.756.321-.246.768-.204.458.048.998.36.78.45 1.278 1.122.5.66.738 1.482.249.828.249 1.752v.444l-4.354-2.514v-.636l3.991 2.304-.364.114a6.2 6.2 0 0 0-.135-1.446 3.3 3.3 0 0 0-.489-1.146 2.75 2.75 0 0 0-.925-.834q-.477-.276-.81-.264a.69.69 0 0 0-.52.264q-.197.246-.29.672a5.2 5.2 0 0 0-.084.984q0 1.224.437 2.16.436.936 1.278 1.422.665.384 1.008.27.353-.108.468-.594l.696.402q-.135.786-.676.978-.54.18-1.496-.372a4.6 4.6 0 0 1-1.808-1.896q-.634-1.218-.634-2.754"/><path fill="#0F2B46" fill-rule="evenodd" d="m225.065 111.471-38.032-21.958v-.806l38.032 21.958zM225.065 121.416l-38.032-21.958v-.806l38.032 21.958zM225.065 131.362l-38.032-21.958v-.805l38.032 21.957zM225.065 141.307l-38.032-21.958v-.806l38.032 21.958zM225.065 151.252l-38.032-21.958v-.806l38.032 21.958z" clip-rule="evenodd"/><path fill="#0F2B46" d="m216.587 111.811-4.597 2.662 8.093 14.011 4.597-2.661zM246.697 112.515l-4.597 2.662 6.848 11.509 4.597-2.661z"/><path fill="#DBD6FF" stroke="#0F2B46" stroke-linejoin="round" stroke-width=".5" d="m206.049 118.08 6.049-3.387 7.984 13.791 22.502-13.307 6.533 11.13-28.793 16.695z"/></svg>